<svg xmlns="http://www.w3.org/2000/svg" viewBox="0 0 1024 1024" width="1024" height="1024">
  <defs>
    <linearGradient id="bg" x1="0" y1="0" x2="1" y2="1">
      <stop offset="0%" stop-color="#0c1524"/>
      <stop offset="100%" stop-color="#111829"/>
    </linearGradient>
    <filter id="glow" x="-20%" y="-20%" width="140%" height="140%">
      <feGaussianBlur stdDeviation="1.5" result="blur"/>
      <feMerge>
        <feMergeNode in="blur"/>
        <feMergeNode in="SourceGraphic"/>
      </feMerge>
    </filter>
    <style>
      .line { stroke: #89f0ca; stroke-width: 3; fill: none; stroke-linecap: round; stroke-linejoin: round; }
      .dash { stroke-dasharray: 16 16; }
      .blueprint { stroke: #d8e0eb; stroke-width: 3; fill: none; opacity: .95; }
    </style>
  </defs>

  <rect width="1024" height="1024" fill="url(#bg)"/>

  <g class="blueprint">
    <line x1="66" y1="52" x2="958" y2="52"/>
    <line x1="66" y1="980" x2="958" y2="980"/>
    <line x1="512" y1="34" x2="512" y2="1002"/>
    <line x1="86" y1="98" x2="86" y2="560"/>
    <line x1="938" y1="98" x2="938" y2="848"/>
    <line x1="34" y1="544" x2="990" y2="544"/>
    <line x1="66" y1="36" x2="66" y2="68"/>
    <line x1="958" y1="36" x2="958" y2="68"/>
    <line x1="66" y1="964" x2="66" y2="996"/>
    <line x1="958" y1="964" x2="958" y2="996"/>
    <line x1="34" y1="128" x2="110" y2="128"/>
    <line x1="34" y1="544" x2="110" y2="544"/>
    <line x1="914" y1="544" x2="990" y2="544"/>
    <line x1="914" y1="848" x2="990" y2="848"/>
  </g>

  <g class="blueprint" opacity=".85">
    <line x1="48" y1="72" x2="48" y2="140"/>
    <line x1="40" y1="86" x2="56" y2="86"/>
    <line x1="40" y1="104" x2="56" y2="104"/>
    <line x1="40" y1="122" x2="56" y2="122"/>
    <line x1="48" y1="884" x2="48" y2="952"/>
    <line x1="40" y1="898" x2="56" y2="898"/>
    <line x1="40" y1="916" x2="56" y2="916"/>
    <line x1="40" y1="934" x2="56" y2="934"/>
    <line x1="976" y1="72" x2="976" y2="140"/>
    <line x1="968" y1="86" x2="984" y2="86"/>
    <line x1="968" y1="104" x2="984" y2="104"/>
    <line x1="968" y1="122" x2="984" y2="122"/>
    <line x1="976" y1="884" x2="976" y2="952"/>
    <line x1="968" y1="898" x2="984" y2="898"/>
    <line x1="968" y1="916" x2="984" y2="916"/>
    <line x1="968" y1="934" x2="984" y2="934"/>
  </g>

  <g class="line" filter="url(#glow)">
    <circle cx="512" cy="560" r="322" class="dash"/>
    <line x1="194" y1="544" x2="830" y2="544" class="dash"/>
    <line x1="512" y1="130" x2="512" y2="810" class="dash"/>

    <rect x="314" y="452" width="396" height="265" rx="10"/>
    <rect x="328" y="465" width="368" height="224" rx="2"/>
    <circle cx="512" cy="704" r="6"/>

    <path d="M486 717 L478 778 H546 L538 717"/>
    <path d="M446 778 H578 C583 778 587 782 587 788 V796 H437 V788 C437 782 441 778 446 778 Z"/>

    <g transform="translate(500 170)">
      <rect x="0" y="0" width="66" height="95" rx="8"/>
      <path d="M50 0 L66 16 L50 16 Z"/>
      <line x1="12" y1="36" x2="52" y2="36"/>
      <line x1="12" y1="48" x2="52" y2="48"/>
      <line x1="12" y1="60" x2="52" y2="60"/>
      <line x1="12" y1="72" x2="45" y2="72"/>
    </g>

    <g transform="translate(245 324) rotate(-38)">
      <rect x="0" y="0" width="66" height="95" rx="8"/>
      <path d="M50 0 L66 16 L50 16 Z"/>
      <line x1="12" y1="36" x2="52" y2="36"/>
      <line x1="12" y1="48" x2="52" y2="48"/>
      <line x1="12" y1="60" x2="52" y2="60"/>
      <line x1="12" y1="72" x2="45" y2="72"/>
    </g>

    <g transform="translate(644 361) rotate(38)">
      <rect x="0" y="0" width="66" height="95" rx="8"/>
      <path d="M50 0 L66 16 L50 16 Z"/>
      <line x1="12" y1="36" x2="52" y2="36"/>
      <line x1="12" y1="48" x2="52" y2="48"/>
      <line x1="12" y1="60" x2="52" y2="60"/>
      <line x1="12" y1="72" x2="45" y2="72"/>
    </g>

    <g transform="translate(150 726)">
      <rect x="0" y="98" width="160" height="42" rx="8"/>
      <path d="M0 98 L18 50 H150 L160 98"/>
      <path d="M22 98 V55 L102 55 V98"/>
      <path d="M36 98 V40 L116 40 V98"/>
      <path d="M50 98 V25 L130 25 V98"/>
      <line x1="62" y1="126" x2="94" y2="126"/>
    </g>

    <g transform="translate(744 714)">
      <rect x="0" y="0" width="90" height="140" rx="10"/>
      <path d="M70 0 L90 20 L70 20 Z"/>
      <line x1="16" y1="42" x2="72" y2="42"/>
      <line x1="16" y1="54" x2="72" y2="54"/>
      <line x1="16" y1="66" x2="62" y2="66"/>
      <path d="M18 96 L36 114 L72 78"/>
      <circle cx="98" cy="132" r="28"/>
      <path d="M84 132 L96 144 L114 122"/>
    </g>
  </g>
</svg>
